PathFileType	4	(X/Y/Z)	/Users/itak/Documents/Research/Walk-IL/dataset/trc/00269_00010.trc
DataRate	CameraRate	NumFrames	NumMarkers	Units	OrigDataRate	OrigDataStartFrame	OrigNumFrames
100.000000	100.000000	4	53	mm	100.000000	223	447
Frame#	Time	RPSI			LPSI			L3			STRN			T10			C7			CLAV			RBAK			LBAK			LSHO			LUPA			LAEL			LAOL			LWTS			LWPS			LFRA			LHPS			LHTS			RSHO			RUPA			RAEL			RAOL			RWTS			RWPS			RFRA			RIFD			RHTS			RHPS			RBHD			LFHD			RFHD			LBHD			LHIP			RHIP			RASI			LKNE			LTHI			LANK			LTIP			LTOE			LMT1			LMT5			LHEE			RKNE			RTHI			RANK			RTIP			RTOE			RMT1			RMT5			RHEE			LIFD			LASI			
		X1	Y1	Z1	X2	Y2	Z2	X3	Y3	Z3	X4	Y4	Z4	X5	Y5	Z5	X6	Y6	Z6	X7	Y7	Z7	X8	Y8	Z8	X9	Y9	Z9	X10	Y10	Z10	X11	Y11	Z11	X12	Y12	Z12	X13	Y13	Z13	X14	Y14	Z14	X15	Y15	Z15	X16	Y16	Z16	X17	Y17	Z17	X18	Y18	Z18	X19	Y19	Z19	X20	Y20	Z20	X21	Y21	Z21	X22	Y22	Z22	X23	Y23	Z23	X24	Y24	Z24	X25	Y25	Z25	X26	Y26	Z26	X27	Y27	Z27	X28	Y28	Z28	X29	Y29	Z29	X30	Y30	Z30	X31	Y31	Z31	X32	Y32	Z32	X33	Y33	Z33	X34	Y34	Z34	X35	Y35	Z35	X36	Y36	Z36	X37	Y37	Z37	X38	Y38	Z38	X39	Y39	Z39	X40	Y40	Z40	X41	Y41	Z41	X42	Y42	Z42	X43	Y43	Z43	X44	Y44	Z44	X45	Y45	Z45	X46	Y46	Z46	X47	Y47	Z47	X48	Y48	Z48	X49	Y49	Z49	X50	Y50	Z50	X51	Y51	Z51	X52	Y52	Z52	X53	Y53	Z53	

224	2.23	-249.2327575683594	986.0393676757812	80.11787414550781	-216.2638244628906	968.0835571289062	-89.49529266357422	-215.7628936767578	1061.944946289062	-1.416781544685364	44.90409469604492	1233.507202148438	12.23681640625	-224.7585906982422	1180.142211914062	1.625631332397461	-168.8141479492188	1420.646362304688	-18.81371688842773	-15.44793224334717	1334.52734375	-1.680163145065308	-226.7516937255859	1291.268920898438	62.39341354370117	-183.02880859375	1379.368774414062	-122.355339050293	-89.66646575927734	1383.233642578125	-171.6520843505859	-126.1509704589844	1269.606567382812	-245.6711578369141	-146.1181335449219	1069.791381835938	-266.4148254394531	-211.2579650878906	1061.915283203125	-208.1259613037109	-82.84654235839844	846.7826538085938	-229.4134826660156	-119.4691162109375	839.6437377929688	-291.0177612304688	-142.1272430419922	966.9703979492188	-278.8407592773438	-121.1247711181641	750.3612670898438	-291.517578125	-67.2845458984375	747.7754516601562	-254.0102081298828	-102.0190582275391	1402.83349609375	142.5526580810547	-107.1426620483398	1348.0087890625	213.1051330566406	-113.4048080444336	1086.578125	282.9421997070312	-163.2142944335938	1072.824462890625	200.9042816162109	2.277250051498413	877.2526245117188	218.0803375244141	-31.05148887634277	864.4522705078125	295.4413452148438	-83.40768432617188	1020.2138671875	293.1173706054688	34.23239135742188	697.0140380859375	210.4874114990234	51.63144683837891	767.978759765625	229.4471130371094	8.976888656616211	758.8812866210938	284.9078369140625	-139.4792175292969	1579.918090820312	56.62464141845703	37.10208511352539	1613.744750976562	-55.92473983764648	32.98757934570312	1608.081787109375	36.88762664794922	-132.9731750488281	1578.587280273438	-90.22811889648438	-126.5524291992188	926.7747192382812	-169.0685272216797	-166.2088775634766	944.6140747070312	201.941650390625	-35.43601226806641	958.5643920898438	155.0968322753906	119.2443771362305	520.146728515625	-144.73291015625	51.19048690795898	648.5114135742188	-160.1416168212891	-125.5698394775391	129.9749450683594	-130.7141876220703	-1.736093282699585	320.4415588378906	-151.4666595458984	60.34860229492188	57.03583908081055	-66.70013427734375	-8.193138122558594	68.477294921875	-28.57604217529297	-14.48323917388916	81.72505187988281	-139.2128753662109	-169.9700622558594	146.4149017333984	-73.04517364501953	-102.9096145629883	472.1331787109375	162.0822448730469	-92.36715698242188	734.32080078125	205.1750030517578	-230.4440612792969	47.76789855957031	107.4284286499023	-104.7870483398438	345.4587707519531	141.0976715087891	-33.55825805664062	42.66981506347656	56.86830139160156	-92.25525665283203	39.4576416015625	16.65139961242676	-124.3759765625	41.15863037109375	130.6004943847656	-282.8770141601562	47.90724945068359	55.34190368652344	-93.14765167236328	659.5360107421875	-236.9425354003906	-2.83594274520874	952.0913696289062	-94.31533813476562	
225	2.24	-256.1614074707031	986.6414794921875	79.19339752197266	-222.5075225830078	969.2418823242188	-90.32749176025391	-222.6182861328125	1062.454223632812	-2.548907279968262	37.40963745117188	1235.171142578125	12.76995182037354	-232.0356140136719	1180.800170898438	0.03801793977618217	-176.7236938476562	1421.531372070312	-19.92556190490723	-23.17481994628906	1336.056274414062	-1.498188972473145	-234.8923645019531	1291.854614257812	60.70941925048828	-189.7899627685547	1380.307983398438	-123.6162872314453	-96.03608703613281	1384.6689453125	-172.0342712402344	-131.0586547851562	1270.7763671875	-246.3874969482422	-149.9004211425781	1071.124755859375	-267.1009826660156	-215.1189270019531	1062.710327148438	-209.0902099609375	-89.88535308837891	846.3078002929688	-231.4545288085938	-126.6089401245117	840.441162109375	-293.1492309570312	-147.0703125	968.005859375	-280.1775207519531	-130.2593688964844	751.3333129882812	-294.5433044433594	-76.52782440185547	747.0662841796875	-256.9165954589844	-111.2380447387695	1403.86767578125	141.9851684570312	-117.1092681884766	1349.308349609375	212.5878295898438	-126.1470642089844	1088.199096679688	282.8912048339844	-175.3003082275391	1074.812133789062	200.3497467041016	-14.9911584854126	875.3541870117188	220.8215026855469	-49.25875091552734	864.2108154296875	298.0135803222656	-97.54530334472656	1021.352416992188	293.6956787109375	12.01487445831299	694.239990234375	215.1108245849609	31.19868659973145	764.8868408203125	233.5441131591797	-12.09279823303223	757.4768676757812	288.7708129882812	-148.6981506347656	1580.693603515625	56.20018768310547	28.32068824768066	1615.614135742188	-55.27772903442383	23.73371696472168	1609.85986328125	37.50020217895508	-141.3318328857422	1579.499755859375	-90.58864593505859	-132.7096099853516	927.9014282226562	-169.7481231689453	-173.5484924316406	945.3256225585938	201.1730651855469	-42.50466918945312	959.570068359375	154.6827239990234	107.4439239501953	517.7597045898438	-145.2134094238281	41.68122100830078	647.3331909179688	-160.1846771240234	-153.1795196533203	138.3406982421875	-133.4879302978516	-21.04023551940918	323.2337646484375	-153.0588989257812	29.09350776672363	57.25579452514648	-68.51966094970703	-39.12157821655273	71.60742950439453	-30.75119590759277	-44.24637603759766	85.26186370849609	-141.4710540771484	-197.0920257568359	156.4702301025391	-75.97599029541016	-107.4172973632812	473.1207885742188	161.5055236816406	-98.55821990966797	735.3057250976562	204.6671295166016	-230.5326843261719	47.68941116333008	107.3785247802734	-108.0988464355469	346.4794616699219	140.6979827880859	-33.57729339599609	42.68050384521484	56.84579849243164	-92.19655609130859	39.40920257568359	16.64369201660156	-124.4072265625	41.17874908447266	130.5096893310547	-282.7743835449219	47.49040985107422	55.32183456420898	-104.6267242431641	659.2630004882812	-240.9208679199219	-9.181845664978027	953.2824096679688	-94.6580810546875	
226	2.25	-263.0317077636719	987.1309814453125	78.26517486572266	-228.7871856689453	970.25537109375	-91.18994140625	-229.41162109375	1062.757080078125	-3.724726438522339	29.88762664794922	1236.666870117188	13.22634792327881	-239.3582611083984	1181.315795898438	-1.634394407272339	-184.6214904785156	1422.274658203125	-21.12131500244141	-30.88312721252441	1337.424560546875	-1.382637143135071	-243.0141296386719	1292.266967773438	58.94617080688477	-196.5152740478516	1381.109741210938	-124.95703125	-102.3619003295898	1385.949096679688	-172.486328125	-135.9587554931641	1271.788330078125	-247.1354064941406	-153.7979125976562	1072.370849609375	-267.7427978515625	-219.0682983398438	1063.390502929688	-209.9827423095703	-96.813232421875	845.8671875	-233.4691772460938	-133.7029724121094	841.18359375	-295.193359375	-152.0558319091797	968.977783203125	-281.4494018554688	-139.2092895507812	752.2811279296875	-297.3984069824219	-85.56141662597656	746.4452514648438	-259.7744445800781	-120.4969940185547	1404.76123046875	141.3302917480469	-127.0825881958008	1350.464965820312	211.9951782226562	-138.7110748291016	1089.707641601562	282.7415161132812	-187.2509460449219	1076.623168945312	199.7533569335938	-32.33217239379883	873.3944702148438	223.4912261962891	-67.40962219238281	864.051025390625	300.5448913574219	-111.5274047851562	1022.444519042969	294.1662902832031	-10.43838119506836	691.5308227539062	219.8763427734375	10.58810806274414	761.8203125	237.6604766845703	-33.2071533203125	756.223388671875	292.7002563476562	-157.8892517089844	1581.319458007812	55.71046447753906	19.56468772888184	1617.324951171875	-54.68276596069336	14.49716281890869	1611.474731445312	38.05683517456055	-149.6680755615234	1580.287231445312	-91.01207733154297	-138.8292846679688	928.8367309570312	-170.4345245361328	-180.7655334472656	945.9539184570312	200.4119415283203	-49.47795486450195	960.444580078125	154.2171783447266	94.86626434326172	514.9227294921875	-145.7924957275391	31.67281913757324	645.7061767578125	-160.3832855224609	-180.4731750488281	146.4873352050781	-136.2548980712891	-40.60640335083008	325.7211608886719	-154.6732177734375	-2.035367727279663	57.56125640869141	-70.58948516845703	-69.73042297363281	74.81985473632812	-33.05754470825195	-73.85034942626953	88.75050354003906	-143.8590698242188	-223.7911682128906	166.2686767578125	-78.86495971679688	-111.731803894043	474.0597534179688	160.9342651367188	-104.6279830932617	736.2711181640625	204.1488037109375	-230.6276397705078	47.60502243041992	107.3521881103516	-111.2825622558594	347.4394226074219	140.2888793945312	-33.6088981628418	42.69559478759766	56.82418441772461	-92.15369415283203	39.37583160400391	16.64330291748047	-124.4302597045898	41.20849990844727	130.4385528564453	-282.6790771484375	47.09188461303711	55.33516311645508	-115.707389831543	659.1036987304688	-244.7335205078125	-15.47938919067383	954.3026123046875	-95.06083679199219	
227	2.26	-269.8291931152344	987.5248413085938	77.32484436035156	-235.1260986328125	971.1237182617188	-92.10211944580078	-236.1311492919922	1062.876586914062	-4.951431274414062	22.3458251953125	1237.998413085938	13.61387920379639	-246.7281341552734	1181.68701171875	-3.390354156494141	-192.512451171875	1422.870239257812	-22.39876365661621	-38.57887649536133	1338.6279296875	-1.329665780067444	-251.1151123046875	1292.494262695312	57.10737609863281	-203.212890625	1381.7646484375	-126.3757171630859	-108.6501922607422	1387.057250976562	-173.0001068115234	-140.8569641113281	1272.635498046875	-247.9179382324219	-157.844970703125	1073.50390625	-268.3871459960938	-223.1459655761719	1063.953247070312	-210.8587646484375	-103.6101837158203	845.4641723632812	-235.4424896240234	-140.7134552001953	841.8456420898438	-297.1463623046875	-157.0896148681641	969.8662109375	-282.6825866699219	-147.9022521972656	753.1632690429688	-300.0516052246094	-94.32064056396484	745.9059448242188	-262.526611328125	-129.8065490722656	1405.51416015625	140.5932464599609	-137.0871734619141	1351.477905273438	211.3258056640625	-151.1472930908203	1091.092407226562	282.4853820800781	-199.0831909179688	1078.256103515625	199.0886688232422	-49.73044967651367	871.4022827148438	226.0693664550781	-85.50315856933594	863.9832153320312	303.0104675292969	-125.3869323730469	1023.481994628906	294.5290222167969	-33.07246017456055	688.9370727539062	224.7641296386719	-10.1612024307251	758.8226928710938	241.7796173095703	-54.33562088012695	755.1491088867188	296.6695251464844	-167.0516815185547	1581.803100585938	55.15892028808594	10.83876895904541	1618.865966796875	-54.1370735168457	5.27979564666748	1612.916137695312	38.55694961547852	-157.9809875488281	1580.953735351562	-91.49890899658203	-144.9251861572266	929.570556640625	-171.1335754394531	-187.8316650390625	946.5238037109375	199.6728668212891	-56.34865570068359	961.2023315429688	153.6902618408203	81.52180480957031	511.7080688476562	-146.4811859130859	21.19304847717285	643.7031860351562	-160.7507476806641	-207.4165344238281	154.3252716064453	-138.9720458984375	-60.40163421630859	327.9055786132812	-156.2919616699219	-32.95026016235352	57.91843795776367	-72.89302825927734	-99.91863250732422	78.05878448486328	-35.4694709777832	-103.2235870361328	92.15693664550781	-146.3517761230469	-250.0397186279297	175.7021789550781	-81.665283203125	-115.8524322509766	474.9598999023438	160.3824005126953	-110.5713195800781	737.24365234375	203.6277923583984	-230.7276306152344	47.51664733886719	107.3498001098633	-114.3293991088867	348.3487243652344	139.8804473876953	-33.64777755737305	42.71524429321289	56.80644226074219	-92.12372589111328	39.36288833618164	16.65491104125977	-124.4491348266602	41.24411392211914	130.3871154785156	-282.6377563476562	46.73851776123047	55.36199569702148	-126.3043212890625	659.0355224609375	-248.2890472412109	-21.74274826049805	955.1337890625	-95.53106689453125	
